<svg width="15" height="15" viewBox="0 0 15 15" fill="none" xmlns="http://www.w3.org/2000/svg">
<path d="M14.555 4.93007C14.5472 4.34126 14.4369 3.7583 14.2293 3.20728C14.0492 2.74249 13.7741 2.32038 13.4216 1.96792C13.0692 1.61545 12.6471 1.34039 12.1823 1.1603C11.6383 0.956109 11.0637 0.845701 10.4828 0.833774C9.73493 0.800345 9.49781 0.791016 7.59932 0.791016C5.70083 0.791016 5.45749 0.791016 4.71505 0.833774C4.13443 0.845789 3.56005 0.956195 3.01636 1.1603C2.5515 1.34026 2.12932 1.61528 1.77684 1.96776C1.42437 2.32024 1.14935 2.74242 0.969378 3.20728C0.764782 3.7508 0.654614 4.32531 0.643634 4.90596C0.610204 5.65463 0.600098 5.89175 0.600098 7.79024C0.600098 9.68873 0.600098 9.93129 0.643634 10.6745C0.655295 11.256 0.764913 11.8298 0.969378 12.3748C1.14965 12.8395 1.42487 13.2615 1.77747 13.6138C2.13007 13.9661 2.55228 14.241 3.01713 14.421C3.55934 14.6334 4.13382 14.7517 4.71582 14.7708C5.46449 14.8042 5.70161 14.8143 7.6001 14.8143C9.49859 14.8143 9.74192 14.8143 10.4844 14.7708C11.0652 14.7594 11.6399 14.6492 12.1838 14.4451C12.6485 14.2648 13.0705 13.9896 13.4229 13.6372C13.7754 13.2847 14.0505 12.8627 14.2308 12.3981C14.4353 11.8539 14.5449 11.2801 14.5566 10.6978C14.59 9.94995 14.6001 9.71283 14.6001 7.81356C14.5985 5.91507 14.5985 5.67407 14.555 4.93007ZM7.59466 11.3804C5.60909 11.3804 4.00059 9.77191 4.00059 7.78635C4.00059 5.80079 5.60909 4.19228 7.59466 4.19228C8.54786 4.19228 9.46203 4.57094 10.136 5.24496C10.8101 5.91898 11.1887 6.83314 11.1887 7.78635C11.1887 8.73956 10.8101 9.65372 10.136 10.3277C9.46203 11.0018 8.54786 11.3804 7.59466 11.3804ZM11.3318 4.89741C11.2217 4.89751 11.1127 4.87591 11.0109 4.83383C10.9092 4.79175 10.8168 4.73002 10.7389 4.65218C10.6611 4.57433 10.5994 4.4819 10.5573 4.38018C10.5152 4.27845 10.4936 4.16943 10.4937 4.05934C10.4937 3.94933 10.5154 3.84041 10.5575 3.73877C10.5996 3.63714 10.6613 3.5448 10.7391 3.46701C10.8168 3.38922 10.9092 3.32752 11.0108 3.28542C11.1124 3.24332 11.2214 3.22166 11.3314 3.22166C11.4414 3.22166 11.5503 3.24332 11.652 3.28542C11.7536 3.32752 11.8459 3.38922 11.9237 3.46701C12.0015 3.5448 12.0632 3.63714 12.1053 3.73877C12.1474 3.84041 12.1691 3.94933 12.1691 4.05934C12.1691 4.52269 11.7943 4.89741 11.3318 4.89741Z" fill="#777777"/>
</svg>
