<svg width="15" height="15" viewBox="0 0 15 15" fill="none" xmlns="http://www.w3.org/2000/svg">
<path d="M7.57619 0.302734C5.94777 0.313786 4.3738 0.888369 3.12354 1.92819C1.87327 2.96801 1.02441 4.40846 0.722156 6.00311C0.419904 7.59776 0.683046 9.24753 1.46657 10.6702C2.25009 12.0928 3.5053 13.2 5.01748 13.8022C4.91584 13.1394 4.91584 12.4651 5.01748 11.8023L5.8453 8.30243C5.71429 7.98546 5.64942 7.64523 5.65465 7.30247C5.65465 6.3325 6.22158 5.60253 6.92397 5.60253C7.05121 5.60063 7.17736 5.62615 7.29379 5.67736C7.41021 5.72856 7.51415 5.80424 7.59849 5.89921C7.68283 5.99418 7.74557 6.1062 7.78242 6.22758C7.81927 6.34897 7.82936 6.47686 7.81199 6.60249C7.81199 7.20247 7.43069 8.10244 7.23001 8.93241C7.18682 9.08719 7.18168 9.25006 7.21504 9.40724C7.24839 9.56442 7.31926 9.71127 7.42164 9.83537C7.52402 9.95947 7.65489 10.0572 7.80319 10.1202C7.95148 10.1832 8.11282 10.2097 8.27356 10.1974C9.5178 10.1974 10.4811 8.88241 10.4811 6.99248C10.4936 6.60844 10.4256 6.22601 10.2816 5.8696C10.1375 5.51319 9.92044 5.19062 9.64428 4.92247C9.36812 4.65431 9.03891 4.44647 8.67765 4.31219C8.31638 4.17791 7.931 4.12015 7.54608 4.14259C7.13513 4.125 6.72488 4.19069 6.34014 4.33569C5.9554 4.48069 5.60419 4.70198 5.30777 4.98617C5.01134 5.27036 4.77586 5.61154 4.61558 5.98905C4.4553 6.36656 4.37355 6.77256 4.37529 7.18247C4.36971 7.75352 4.5453 8.31173 4.877 8.77741C4.90112 8.80413 4.9183 8.83633 4.92705 8.87119C4.93579 8.90605 4.93583 8.94252 4.92717 8.9774C4.87198 9.1974 4.75157 9.67738 4.7315 9.77237C4.71144 9.86737 4.62614 9.92737 4.4957 9.86737C3.61771 9.45739 3.07085 8.18243 3.07085 7.15247C3.07085 4.94756 4.68133 2.91763 7.71165 2.91763C10.1449 2.91763 12.0414 4.64757 12.0414 6.96248C12.0414 9.37239 10.5363 11.3123 8.39397 11.3123C8.07991 11.3232 7.7681 11.2557 7.48685 11.116C7.2056 10.9763 6.96383 10.7688 6.78349 10.5123L6.347 12.1773C6.13776 12.8243 5.84427 13.4412 5.47403 14.0122C6.15624 14.2131 6.86486 14.3109 7.57619 14.3022C9.43904 14.3022 11.2256 13.5647 12.5428 12.252C13.8601 10.9393 14.6001 9.15891 14.6001 7.30247C14.6001 5.44602 13.8601 3.66561 12.5428 2.35291C11.2256 1.0402 9.43904 0.302734 7.57619 0.302734Z" fill="#777777"/>
</svg>
