<svg width="12" height="10" viewBox="0 0 12 10" fill="none" xmlns="http://www.w3.org/2000/svg">
<path d="M12 1.13641C11.5584 1.32841 11.0844 1.46041 10.5864 1.51801C11.0952 1.21801 11.484 0.742812 11.6688 0.177612C11.184 0.460172 10.6549 0.658958 10.104 0.765612C9.87225 0.5227 9.59345 0.329541 9.2846 0.197914C8.97575 0.0662867 8.64333 -0.00104943 8.3076 1.23642e-05C6.948 1.23642e-05 5.8464 1.08601 5.8464 2.42401C5.8464 2.61361 5.868 2.79841 5.91 2.97601C4.93479 2.9297 3.97994 2.68062 3.10638 2.24467C2.23281 1.80871 1.45971 1.19545 0.8364 0.444012C0.617476 0.812533 0.502212 1.23337 0.5028 1.66201C0.5028 2.50201 0.9384 3.24601 1.5984 3.67921C1.20773 3.66696 0.825432 3.56296 0.4824 3.37561V3.40561C0.486107 3.96897 0.68496 4.51362 1.0451 4.94684C1.40524 5.38006 1.9044 5.67506 2.4576 5.78161C2.09443 5.87764 1.71443 5.89158 1.3452 5.82241C1.50615 6.30705 1.81401 6.72956 2.22603 7.03126C2.63805 7.33296 3.13378 7.49889 3.6444 7.50601C2.76836 8.18108 1.69277 8.5458 0.5868 8.54281C0.3888 8.54281 0.1932 8.53081 0 8.50921C1.12857 9.22356 2.43716 9.6019 3.7728 9.60001C8.3016 9.60001 10.7772 5.90641 10.7772 2.70241L10.7688 2.38801C11.2516 2.04875 11.6687 1.62467 12 1.13641Z" fill="#777777"/>
</svg>
